<?xml version="1.0" standalone="no"?>
<!DOCTYPE svg PUBLIC "-//W3C//DTD SVG 20010904//EN"
 "http://www.w3.org/TR/2001/REC-SVG-20010904/DTD/svg10.dtd">
<svg version="1.0" xmlns="http://www.w3.org/2000/svg"
 width="265.000000pt" height="305.000000pt" viewBox="0 0 265.000000 305.000000"
 preserveAspectRatio="xMidYMid meet">

<g transform="translate(0.000000,305.000000) scale(0.100000,-0.100000)"
fill="#000000" stroke="none">
<path d="M1240 3007 c-94 -26 -155 -84 -191 -178 -18 -46 -19 -89 -19 -680 l0
-630 -41 3 -40 3 -203 517 c-112 284 -215 537 -230 562 -88 150 -306 175 -432
49 -57 -57 -78 -108 -78 -193 0 -71 4 -87 86 -295 170 -431 336 -851 351 -887
l15 -36 -81 -65 c-162 -128 -193 -177 -185 -286 4 -55 16 -80 202 -406 109
-191 210 -360 223 -376 14 -16 46 -42 72 -57 l46 -27 765 0 765 0 47 28 c91
53 97 68 208 540 l100 424 0 274 c0 267 -1 275 -24 324 -28 59 -66 98 -119
120 -70 29 -176 17 -232 -27 -36 -28 -85 -106 -85 -134 0 -12 -3 -29 -6 -38
-8 -22 -44 -20 -45 2 0 9 -3 63 -5 120 -2 73 -9 116 -22 145 -69 154 -277 182
-387 54 -46 -54 -55 -90 -55 -224 l0 -113 -25 0 -24 0 -3 648 c-3 718 2 663
-70 754 -57 73 -184 112 -278 85z"/>
</g>
</svg>
