<?xml version="1.0" standalone="no"?>
<!DOCTYPE svg PUBLIC "-//W3C//DTD SVG 20010904//EN"
 "http://www.w3.org/TR/2001/REC-SVG-20010904/DTD/svg10.dtd">
<svg version="1.0" xmlns="http://www.w3.org/2000/svg"
 width="214.000000pt" height="311.000000pt" viewBox="0 0 214.000000 311.000000"
 preserveAspectRatio="xMidYMid meet">

<g transform="translate(0.000000,311.000000) scale(0.100000,-0.100000)"
fill="#000000" stroke="none">
<path d="M920 3045 c-79 -18 -175 -64 -232 -111 -57 -49 -133 -144 -158 -202
-50 -111 -51 -135 -48 -736 l3 -561 27 -66 c36 -92 71 -144 142 -214 211 -207
562 -207 772 0 71 70 106 122 142 214 l27 66 3 555 c2 390 0 573 -8 615 -29
149 -118 279 -250 364 -119 77 -284 107 -420 76z"/>
<path d="M83 1932 c-12 -2 -34 -17 -49 -35 l-26 -31 5 -211 c6 -228 20 -318
73 -450 59 -149 116 -237 232 -357 159 -165 313 -249 555 -302 l27 -6 0 -100
0 -100 -175 0 c-186 0 -215 -6 -234 -47 -14 -31 -14 -158 0 -185 25 -46 48
-48 549 -48 501 0 524 2 549 48 14 27 14 154 0 185 -19 41 -48 47 -234 47
l-175 0 0 98 0 98 106 27 c241 59 457 207 593 407 77 112 123 209 157 330 24
87 27 115 31 331 l5 236 -29 33 c-28 31 -31 32 -112 33 -82 2 -83 1 -112 -31
l-29 -32 0 -184 c0 -216 -15 -316 -66 -424 -98 -213 -282 -370 -504 -429 -88
-24 -271 -24 -360 0 -213 57 -397 217 -494 429 -57 125 -67 182 -73 407 -6
203 -6 204 -32 233 -24 27 -33 30 -91 32 -36 1 -75 0 -87 -2z"/>
</g>
</svg>
