<?xml version="1.0" standalone="no"?>
<!DOCTYPE svg PUBLIC "-//W3C//DTD SVG 20010904//EN"
 "http://www.w3.org/TR/2001/REC-SVG-20010904/DTD/svg10.dtd">
<svg version="1.0" xmlns="http://www.w3.org/2000/svg"
 width="341.000000pt" height="305.000000pt" viewBox="0 0 341.000000 305.000000"
 preserveAspectRatio="xMidYMid meet">

<g transform="translate(0.000000,305.000000) scale(0.100000,-0.100000)"
fill="#000000" stroke="none">
<path d="M190 2619 c-65 -29 -127 -94 -150 -157 -19 -51 -20 -79 -20 -942 0
-869 0 -890 20 -944 14 -36 36 -68 68 -98 90 -84 20 -79 1052 -76 l915 3 45
27 c60 35 94 72 122 133 l23 50 0 905 0 905 -23 50 c-28 61 -62 98 -122 133
l-45 27 -920 2 c-908 3 -921 3 -965 -18z"/>
<path d="M3118 2435 c-41 -23 -652 -446 -658 -456 -3 -4 -5 -213 -5 -464 l1
-455 317 -220 c175 -121 332 -227 349 -236 36 -18 103 -20 152 -4 43 14 92 68
106 117 8 27 10 276 8 823 -3 871 1 816 -71 874 -33 26 -48 31 -105 33 -46 2
-75 -1 -94 -12z"/>
</g>
</svg>
